# xmcd CD database file
# Copyright (C) 1995-1998 Ti Kan
#
# Track frame offsets:
#	150
#	28105
#	53131
#	81124
#	108420
#	115476
#	134659
#	158136
#	188865
#
# Disc length: 2806 seconds
#
# Revision: 1
# Processed by: cddbd v1.4PL0 Copyright (c) Steve Scherf et al.
# Submitted via: CDex 1.30
#
DISCID=7a0af409
DTITLE=Lubos Andrst - Imprints
DYEAR=1991
DGENRE=Blues
TTITLE0=La bodiguata del medio
TTITLE1=White landscape
TTITLE2=Blue box
TTITLE3=November
TTITLE4=Introspection
TTITLE5=Encountering
TTITLE6=Closed contact
TTITLE7=Imprints
TTITLE8=Good night, my love
EXTD=\nYEAR: 1991  ID3G:   0
EXTT0=
EXTT1=
EXTT2=
EXTT3=
EXTT4=
EXTT5=
EXTT6=
EXTT7=
EXTT8=
PLAYORDER=
